<svg xmlns="http://www.w3.org/2000/svg" viewBox="0 0 744.09448819 1052.3622047" height="297mm" width="210mm"><path d="M478.234 500.84c-.845-.226-.603-.697.358-.697.485 0 .974-.15 1.087-.332.136-.22.004-.268-.39-.143-.372.118-.863-.027-1.307-.386-.612-.496-.669-.694-.41-1.432.28-.803.416-.862 2.168-.946 1.526-.073 1.87-.004 1.87.375 0 .255-.136.464-.3.464-.166 0-.3.6-.3 1.333 0 .732-.102 1.391-.226 1.464-.426.251-2.026.439-2.55.3zm1.522-2.397c-.146-.752-.847-.856-.847-.125 0 .369.194.625.472.625.28 0 .433-.204.375-.5zm2.65.852c-.651-.72-.628-1.34.075-1.976.784-.71 2.38-.522 2.954.346.411.624.392.693-.266.956-.576.23-.604.288-.148.303.465.016.497.097.188.47-.52.627-2.2.568-2.803-.1zm1.822-.533c-.1-.1-.358-.11-.575-.024-.24.096-.168.167.181.182.317.013.494-.058.394-.158zm.081-.851c0-.317-.575-.45-.747-.173-.103.168.022.305.28.305.257 0 .467-.06.467-.132zm2.232 1.312c-.513-.566-.522-.691-.112-1.425.6-1.074 2.3-1.271 3.124-.362.683.755.388 1.12-1.044 1.288l-1.05.123 1.162.048c.996.041 1.109.112.788.498-.55.664-2.202.566-2.868-.17zm1.968-1.312c0-.317-.575-.45-.747-.173-.103.168.022.305.28.305.257 0 .467-.06.467-.132zm1.95-.168c0-2.09.004-2.1.825-2.1.78 0 .825.076.825 1.368 0 .871.114 1.298.313 1.175.171-.106.23-.452.13-.768-.153-.481-.033-.575.737-.575 1.042 0 1.126.176.442.931-.44.487-.429.56.15.921.346.216.628.563.628.77 0 .64-1.433.425-1.933-.288l-.467-.667v.667c0 .527-.172.666-.825.666-.821 0-.825-.009-.825-2.1zm-13.728-1.697c-.725-.203-.35-.703.528-.703.393 0 .798-.133.898-.296.103-.167-.01-.223-.259-.127-.769.295-1.689-.428-1.689-1.327 0-1.207.52-1.55 2.345-1.55 1.54 0 1.616.036 1.445.675a6.82 6.82 0 0 0-.185 1.443c-.002.422-.173.994-.38 1.27-.399.537-1.827.861-2.703.615zm1.578-2.503c0-.632-.436-.807-.75-.3-.218.354.065.9.468.9.155 0 .282-.27.282-.6zm-13.955.475l-.005-1.925 1.29-.103c.71-.056 1.538-.011 1.84.1 1.323.49.776 2.812-.658 2.791-.646-.009-.777.098-.641.525.14.443-.005.537-.825.537h-.995l-.005-1.925zm2.502-.575c.058-.296-.095-.5-.375-.5-.278 0-.472.257-.472.625 0 .731.701.628.847-.125zm1.969.107v-1.493l1.442.032c1.554.035 1.94.567.84 1.156-.45.24-.556.509-.418 1.06.17.676.1.738-.84.738h-1.024v-1.493zm3.666 1.104c-.804-.589-.532-2.06.469-2.538 1.673-.798 3.378 1.025 2.188 2.34-.61.673-1.877.768-2.657.197zm1.618-1.11c0-.633-.436-.808-.75-.3-.218.353.065.9.468.9.155 0 .282-.27.282-.6zm6.416.006v-1.493l1.442.032c1.162.027 1.442.135 1.442.559 0 .289-.275.598-.612.686-.488.127-.572.316-.417.935.18.72.122.775-.83.775h-1.025v-1.494zm3.293 1.044c-.307-.8.135-1.35 1.082-1.35.5 0 .91-.142.91-.314 0-.196-.395-.24-1.05-.117-1.255.236-1.458-.33-.281-.777 1.607-.61 2.375-.108 2.648 1.733l.19 1.275h-1.663c-1.202 0-1.711-.125-1.836-.45zm1.841-.45c.102-.165-.033-.3-.3-.3s-.402.135-.3.3c.102.165.237.3.3.3s.198-.135.3-.3zm2.366-.596v-1.497l2.642.021c2.333.018 2.642.084 2.642.559 0 .296.085.96.188 1.475.172.86.122.938-.6.938-.7 0-.788-.117-.788-1.05 0-.578-.15-1.05-.333-1.05-.218 0-.265.361-.136 1.05l.197 1.05h-3.812zm1.883-.38c-.083-.206-.151-.037-.151.376 0 .412.068.58.151.375a1.158 1.158 0 0 0 0-.75zm4.417.38v-1.497l2.661.021c1.751.014 2.698.14 2.769.371.06.193.192.857.295 1.476.182 1.094.162 1.125-.727 1.125-.847 0-.914-.078-.914-1.068 0-.675-.116-.996-.317-.872-.182.113-.236.568-.126 1.068.172.786.115.872-.583.872-.684 0-.774-.122-.774-1.05 0-.578-.15-1.05-.333-1.05-.218 0-.265.361-.136 1.05.193 1.03.178 1.05-.81 1.05h-1.005v-1.496zm6.8 1.064c-.602-.725-.26-2.07.635-2.496 1.448-.69 3.36.766 2.158 1.645-.342.25-.387.383-.13.383.317 0 .321.088.021.45-.475.573-2.214.584-2.685.018zm2.003-.65c-.1-.1-.358-.11-.575-.023-.24.095-.168.167.181.18.317.014.494-.057.394-.157zm-.219-1.019c0-.165-.127-.3-.282-.3-.155 0-.366.135-.468.3-.102.165.025.3.283.3.257 0 .467-.135.467-.3zm1.916.607v-1.493l1.442.032c1.162.026 1.442.135 1.442.559 0 .289-.275.597-.612.685-.488.128-.572.317-.417.935.18.72.122.775-.83.775h-1.025v-1.493zm-37.39-4.955c-.288-1.106-1.258-3.583-2.154-5.506-1.398-2.999-1.681-3.916-1.991-6.45-1.457-11.901 4.237-20.189 15.92-23.171 3.445-.88 11.499-.807 15 .135 4.497 1.21 8.166 3.346 9.746 5.671l.753 1.109.03-1.195c.026-1.04.061-1.098.27-.445.132.413.254 1.266.27 1.896.025.943.123 1.117.555.989.29-.086.93-.237 1.425-.335.88-.175.876-.168-.136.297-1.394.64-1.376.58-.503 1.725 1.306 1.712 1.995 3.662 2.19 6.196.225 2.902-.043 4.379-2.151 11.882-.88 3.135-1.733 6.24-1.895 6.9-.28 1.152-.294 1.115-.327-.9-.019-1.155-.289-3.787-.6-5.85-.311-2.062-.655-4.508-.763-5.435l-.198-1.686-2.158.878c-1.187.483-2.462 1.164-2.833 1.513-1.27 1.194-.559-.501 1.53-3.644 1.037-1.558 1.524-2.624 1.63-3.56l.15-1.336-2.518 1.732c-3.325 2.287-8.756 4.869-13.401 6.43-2.022.68-3.782 1.208-3.9 1.208-.12 0 .571-.476 1.534-1.057.962-.58 2.296-1.491 2.963-2.024 1.22-.973 3.344-3.51 3.125-3.73-.065-.065-1.004.502-2.088 1.259-2.406 1.682-5.426 3.094-9.2 4.3-4.528 1.447-4.391 1.455-2.688-.139 1.458-1.363 2.387-2.687 2.387-3.4 0-.177-.91.435-2.025 1.36-1.113.925-3.196 2.244-4.627 2.93l-2.602 1.247.144 4.202c.079 2.311.035 5.06-.098 6.108l-.242 1.906zm4.334-.212c-.198-.198-.36-1.012-.36-1.81 0-1.01-.136-1.5-.45-1.621-.247-.095-.45-.347-.45-.559 0-.212.203-.463.45-.558.3-.115.45-.586.45-1.402 0-1.523.44-2.39 1.21-2.39.695 0 .786.461.14.709-.272.104-.451.562-.454 1.157-.002.541-.177 1.322-.389 1.734-.312.61-.312.89.003 1.5.213.413.388 1.175.389 1.693.001.56.185 1.013.452 1.116.247.095.45.312.45.482 0 .425-1 .39-1.44-.05zm9.54.075c0-.157.188-.393.417-.525.99-.57.927-6.45-.077-7.183-.633-.463-.172-.937.5-.514.324.204.583.907.71 1.931.111.885.347 1.659.526 1.718.423.141.42.877-.005 1.018-.181.06-.402.78-.49 1.6-.087.82-.293 1.659-.457 1.865-.349.44-1.124.502-1.124.09zm8.46-.075c-.198-.198-.36-.93-.36-1.628 0-.728-.192-1.46-.45-1.719-.543-.543-.578-1-.088-1.163.199-.067.435-.84.525-1.72.107-1.045.34-1.708.674-1.918.726-.456 1.03 0 .438.655-.289.319-.499 1.053-.499 1.742 0 .655-.146 1.338-.326 1.517-.235.235-.235.383 0 .528.18.111.326.785.326 1.497 0 .786.177 1.443.45 1.67.248.205.45.491.45.636 0 .383-.72.322-1.14-.097zm9.54.097c0-.145.203-.431.45-.637.269-.223.45-.878.45-1.626 0-.69.147-1.4.327-1.58.234-.235.234-.382 0-.528-.18-.11-.327-.703-.327-1.317 0-.613-.216-1.424-.48-1.801-.558-.796-.322-1.221.42-.756.334.21.567.873.674 1.919.09.879.326 1.652.525 1.719.49.163.455.62-.089 1.163-.258.258-.45.991-.45 1.719 0 .697-.162 1.43-.36 1.628-.419.42-1.14.48-1.14.097zm-13.5-3.937c0-1.6.123-2.7.3-2.7.178 0 .3 1.1.3 2.7s-.122 2.7-.3 2.7c-.177 0-.3-1.1-.3-2.7zm-9.728 1.029c-.955-.955-.281-2.829 1.018-2.829.3 0 .627.211.726.47.1.257.306.39.46.295.535-.33.683 1.052.192 1.8-.555.848-1.687.973-2.396.264zm18.066.096c-.825-.648-.933-1.63-.253-2.31.738-.738 1.815-.817 1.815-.133 0 .306.165.42.45.31.44-.17.596.266.465 1.308-.07.564-.874 1.2-1.515 1.2-.267 0-.7-.169-.962-.375z" fill="#1d1d1d"/></svg>