<svg xmlns="http://www.w3.org/2000/svg" width="52mm" height="74mm" viewBox="0 0 184.25197 262.20473"><path d="M67.215 191.422c-2.708-.661-1.934-2.042 1.146-2.042 1.555 0 3.123-.439 3.485-.975.436-.646.013-.787-1.251-.42-1.192.346-2.766-.08-4.188-1.134-1.963-1.455-2.145-2.037-1.316-4.202.901-2.356 1.335-2.53 6.951-2.776 4.89-.213 5.99-.011 5.99 1.1 0 .75-.432 1.364-.961 1.364-.529 0-.962 1.759-.962 3.91 0 2.15-.324 4.084-.72 4.298-1.368.737-6.495 1.287-8.174.877zm4.878-7.032c-.467-2.208-2.714-2.512-2.714-.366 0 1.081.62 1.834 1.513 1.834.895 0 1.386-.599 1.201-1.468zm8.492 2.5c-2.087-2.113-2.011-3.932.242-5.8 2.512-2.08 7.629-1.531 9.466 1.017 1.32 1.83 1.258 2.032-.852 2.806-1.847.677-1.936.844-.474.89 1.49.046 1.594.283.604 1.376-1.67 1.841-7.051 1.668-8.986-.29zm5.84-1.564c-.319-.292-1.148-.324-1.842-.07-.767.282-.54.49.58.533 1.014.038 1.582-.17 1.263-.463zm.261-2.497c0-.93-1.845-1.32-2.394-.507-.332.492.07.895.895.895s1.5-.175 1.5-.388zm7.152 3.85c-1.642-1.662-1.674-2.028-.359-4.183 1.924-3.152 7.375-3.73 10.012-1.062 2.19 2.217 1.244 3.287-3.343 3.78l-3.366.362 3.724.141c3.193.121 3.553.33 2.526 1.462-1.765 1.947-7.06 1.659-9.194-.5zm6.31-3.85c0-.93-1.846-1.32-2.394-.507-.333.492.07.895.895.895.824 0 1.499-.175 1.499-.388zm6.25-.492c0-6.136.013-6.163 2.644-6.163 2.498 0 2.644.222 2.644 4.014 0 2.556.363 3.808 1 3.447.551-.311.738-1.325.417-2.253-.49-1.412-.104-1.687 2.364-1.687 3.34 0 3.607.517 1.417 2.733-1.412 1.429-1.374 1.642.48 2.702 1.108.634 2.014 1.65 2.014 2.26 0 1.875-4.593 1.247-6.195-.847l-1.497-1.957v1.957c0 1.547-.553 1.956-2.644 1.956-2.633 0-2.644-.026-2.644-6.162zm-44.002-4.98c-2.323-.598-1.119-2.064 1.695-2.064 1.26 0 2.554-.391 2.877-.87.33-.489-.033-.652-.83-.372-2.465.866-5.413-1.254-5.413-3.895 0-3.54 1.663-4.547 7.516-4.547 4.932 0 5.178.105 4.629 1.981-.32 1.09-.586 2.995-.593 4.234-.007 1.239-.554 2.917-1.215 3.73-1.28 1.572-5.859 2.524-8.666 1.803zm5.06-7.346c0-1.857-1.399-2.37-2.404-.88-.701 1.038.208 2.64 1.5 2.64.497 0 .904-.791.904-1.76zm-44.728 1.392l-.016-5.65 4.135-.3c2.275-.166 4.927-.033 5.894.294 4.243 1.437 2.49 8.253-2.107 8.191-2.069-.026-2.489.288-2.054 1.54.45 1.298-.016 1.576-2.644 1.575h-3.19l-.016-5.65zm8.02-1.685c.184-.869-.306-1.468-1.202-1.468-.892 0-1.513.753-1.513 1.834 0 2.146 2.247 1.843 2.715-.366zm6.309.313v-4.383l4.623.096c4.98.103 6.218 1.663 2.69 3.391-1.443.708-1.781 1.494-1.337 3.112.543 1.985.318 2.166-2.691 2.166h-3.285v-4.382zm11.75 3.238c-2.578-1.726-1.706-6.045 1.504-7.447 5.362-2.342 10.827 3.008 7.014 6.866-1.955 1.978-6.017 2.255-8.518.581zm5.188-3.258c0-1.857-1.4-2.37-2.404-.88-.701 1.038.208 2.64 1.499 2.64.497 0 .905-.791.905-1.76zm20.561.02v-4.382l4.623.096c3.725.077 4.623.395 4.623 1.638 0 .849-.883 1.755-1.962 2.013-1.565.375-1.835.929-1.338 2.744.58 2.113.39 2.274-2.66 2.274h-3.286v-4.382zm10.555 3.062c-.983-2.345.432-3.961 3.468-3.961 1.603 0 2.915-.415 2.915-.92 0-.576-1.263-.704-3.365-.343-4.02.69-4.673-.967-.9-2.28 5.15-1.793 7.614-.318 8.489 5.083l.606 3.742h-5.33c-3.85 0-5.483-.367-5.883-1.32zm5.902-1.32c.327-.484-.106-.88-.961-.88-.856 0-1.289.396-.962.88.327.484.76.88.962.88.202 0 .634-.396.961-.88zm7.582-1.75v-4.39l8.468.06c7.478.054 8.47.246 8.47 1.64 0 .868.27 2.816.6 4.33.551 2.522.391 2.75-1.923 2.75-2.244 0-2.524-.342-2.524-3.08 0-1.695-.48-3.082-1.069-3.082-.7 0-.85 1.062-.437 3.081l.632 3.082H98.595zm6.036-1.112c-.267-.605-.485-.11-.485 1.101 0 1.21.218 1.706.485 1.1.266-.605.266-1.595 0-2.2zm14.156 1.112v-4.39l8.529.061c5.613.04 8.647.412 8.874 1.089.19.565.615 2.514.945 4.33.583 3.212.52 3.301-2.329 3.301-2.715 0-2.928-.228-2.928-3.133 0-1.98-.375-2.922-1.018-2.558-.584.33-.756 1.667-.404 3.134.553 2.307.37 2.557-1.867 2.557-2.193 0-2.48-.356-2.48-3.081 0-1.695-.48-3.082-1.069-3.082-.7 0-.85 1.062-.437 3.082.62 3.023.571 3.081-2.592 3.081h-3.224v-4.39zm21.793 3.124c-1.927-2.127-.83-6.072 2.037-7.324 4.64-2.027 10.768 2.248 6.918 4.826-1.098.735-1.242 1.124-.416 1.124 1.014 0 1.027.26.066 1.32-1.524 1.682-7.098 1.716-8.605.053zm6.422-1.906c-.32-.293-1.149-.324-1.843-.07-.767.281-.54.49.581.532 1.014.038 1.582-.17 1.262-.462zm-.701-2.99a.895.895 0 0 0-.905-.881c-.498 0-1.172.396-1.5.88-.326.484.081.88.906.88.824 0 1.499-.396 1.499-.88zm6.139 1.78v-4.383l4.622.096c3.725.077 4.623.395 4.623 1.638 0 .849-.883 1.755-1.961 2.013-1.566.375-1.836.929-1.338 2.744.579 2.113.39 2.274-2.662 2.274h-3.284v-4.382zM32.602 155.489c-.924-3.244-4.031-10.515-6.904-16.158-4.48-8.8-5.388-11.49-6.382-18.927-4.67-34.927 13.58-59.248 51.024-68 11.045-2.582 36.857-2.368 48.077.397 14.414 3.554 26.175 9.82 31.24 16.643l2.413 3.253.096-3.506c.083-3.055.195-3.223.865-1.305.424 1.21.813 3.713.866 5.562.079 2.768.393 3.28 1.779 2.903.925-.252 2.98-.694 4.567-.984 2.817-.513 2.807-.492-.437.872-4.467 1.88-4.411 1.704-1.612 5.064 4.184 5.023 6.395 10.747 7.02 18.181.718 8.518-.139 12.851-6.896 34.871-2.823 9.2-5.555 18.312-6.072 20.25-.9 3.378-.943 3.27-1.049-2.642-.06-3.39-.925-11.115-1.923-17.167-.997-6.053-2.098-13.231-2.447-15.952l-.633-4.946-6.916 2.577c-3.804 1.417-7.89 3.415-9.081 4.44-4.072 3.502-1.79-1.472 4.906-10.695 3.32-4.573 4.883-7.701 5.221-10.448l.483-3.92-8.07 5.082c-10.657 6.713-28.064 14.29-42.954 18.871-6.478 1.993-12.119 3.544-12.5 3.543-.381 0 1.832-1.396 4.917-3.1 3.085-1.703 7.36-4.376 9.499-5.94 3.906-2.856 10.718-10.302 10.014-10.947-.208-.19-3.218 1.473-6.69 3.696-7.712 4.935-17.393 9.078-29.49 12.619-14.512 4.247-14.072 4.268-8.613-.408 4.673-4.002 7.651-7.887 7.651-9.98 0-.518-2.92 1.278-6.49 3.993-3.57 2.715-10.244 6.584-14.831 8.598l-8.342 3.661.462 12.331c.254 6.782.113 14.848-.313 17.924l-.774 5.594zm13.893-.62c-.635-.582-1.154-2.971-1.154-5.31 0-2.97-.436-4.407-1.443-4.76-.793-.28-1.442-1.017-1.442-1.64 0-.622.65-1.36 1.442-1.639.958-.336 1.443-1.72 1.443-4.114 0-4.47 1.406-7.012 3.88-7.012 2.225 0 2.516 1.352.447 2.079-.872.306-1.448 1.649-1.457 3.395-.006 1.59-.568 3.88-1.245 5.09-1.002 1.79-1 2.612.01 4.402.681 1.21 1.241 3.446 1.245 4.968.003 1.644.591 2.973 1.448 3.274.793.279 1.442.915 1.442 1.415 0 1.248-3.202 1.145-4.615-.149zm30.576.22c0-.46.601-1.154 1.336-1.541 3.172-1.673 2.97-18.927-.247-21.081-2.028-1.358-.551-2.749 1.601-1.508 1.041.6 1.87 2.663 2.28 5.667.352 2.598 1.11 4.867 1.682 5.042 1.356.414 1.345 2.572-.016 2.987-.581.178-1.287 2.29-1.568 4.696-.282 2.405-.941 4.868-1.466 5.473-1.119 1.292-3.602 1.474-3.602.264zm27.115-.22c-.635-.582-1.154-2.732-1.154-4.78 0-2.135-.615-4.286-1.442-5.043-1.742-1.595-1.853-2.935-.284-3.414.638-.195 1.395-2.465 1.683-5.045.343-3.07 1.09-5.016 2.16-5.631 2.327-1.337 3.303 0 1.403 1.923-.924.934-1.597 3.089-1.597 5.111 0 1.923-.47 3.927-1.045 4.454-.753.689-.753 1.122 0 1.548.575.326 1.045 2.303 1.045 4.394 0 2.305.568 4.233 1.442 4.898.794.603 1.443 1.443 1.443 1.868 0 1.125-2.312.946-3.654-.284zm30.576.283c0-.425.65-1.266 1.443-1.868.86-.655 1.442-2.579 1.442-4.774 0-2.023.47-4.109 1.045-4.635.753-.69.753-1.123 0-1.549-.575-.325-1.045-2.065-1.045-3.865 0-1.8-.693-4.18-1.54-5.287-1.788-2.337-1.03-3.584 1.346-2.218 1.07.615 1.817 2.561 2.16 5.631.288 2.58 1.046 4.85 1.683 5.045 1.57.479 1.458 1.82-.284 3.414-.827.757-1.442 2.908-1.442 5.043 0 2.048-.52 4.198-1.154 4.78-1.342 1.229-3.654 1.408-3.654.283zM91.494 143.6c0-4.695.392-7.923.961-7.923.57 0 .962 3.228.962 7.923 0 4.696-.392 7.924-.962 7.924s-.961-3.228-.961-7.924zm-31.181 3.019c-3.061-2.803-.9-8.301 3.262-8.301.964 0 2.012.62 2.329 1.376.317.757.981 1.148 1.476.868 1.714-.97 2.185 3.087.614 5.282-1.78 2.489-5.41 2.855-7.681.775zm57.904.283c-2.645-1.904-2.99-4.784-.811-6.778 2.366-2.167 5.818-2.399 5.818-.391 0 .896.53 1.229 1.442.908 1.412-.496 1.908.782 1.49 3.84-.226 1.653-2.8 3.521-4.855 3.521-.855 0-2.243-.495-3.084-1.1z" fill="#1d1d1d"/></svg>